<svg width="143" height="74" viewBox="0 0 143 74" fill="none" xmlns="http://www.w3.org/2000/svg">
<circle cx="2.5" cy="2.5" r="2.5" fill="#1DA3AB"/>
<circle cx="19.6514" cy="2.5" r="2.5" fill="#1DA3AB"/>
<circle cx="36.8037" cy="2.5" r="2.5" fill="#1DA3AB"/>
<circle cx="53.9551" cy="2.5" r="2.5" fill="#1DA3AB"/>
<circle cx="71.1074" cy="2.5" r="2.5" fill="#1DA3AB"/>
<circle cx="88.2588" cy="2.5" r="2.5" fill="#1DA3AB"/>
<circle cx="105.41" cy="2.5" r="2.5" fill="#1DA3AB"/>
<circle cx="122.562" cy="2.5" r="2.5" fill="#1DA3AB"/>
<circle cx="139.714" cy="2.5" r="2.5" fill="#1DA3AB"/>
<circle cx="2.5" cy="19.6523" r="2.5" fill="#1DA3AB"/>
<circle cx="19.6514" cy="19.6523" r="2.5" fill="#1DA3AB"/>
<circle cx="36.8037" cy="19.6523" r="2.5" fill="#1DA3AB"/>
<circle cx="53.9551" cy="19.6523" r="2.5" fill="#1DA3AB"/>
<circle cx="71.1074" cy="19.6523" r="2.5" fill="#1DA3AB"/>
<circle cx="88.2588" cy="19.6523" r="2.5" fill="#1DA3AB"/>
<circle cx="105.41" cy="19.6523" r="2.5" fill="#1DA3AB"/>
<circle cx="122.562" cy="19.6523" r="2.5" fill="#1DA3AB"/>
<circle cx="139.714" cy="19.6523" r="2.5" fill="#1DA3AB"/>
<circle cx="2.5" cy="36.8027" r="2.5" fill="#1DA3AB"/>
<circle cx="19.6514" cy="36.8027" r="2.5" fill="#1DA3AB"/>
<circle cx="36.8037" cy="36.8027" r="2.5" fill="#1DA3AB"/>
<circle cx="53.9551" cy="36.8027" r="2.5" fill="#1DA3AB"/>
<circle cx="71.1074" cy="36.8027" r="2.5" fill="#1DA3AB"/>
<circle cx="88.2588" cy="36.8027" r="2.5" fill="#1DA3AB"/>
<circle cx="105.41" cy="36.8027" r="2.5" fill="#1DA3AB"/>
<circle cx="122.562" cy="36.8027" r="2.5" fill="#1DA3AB"/>
<circle cx="139.714" cy="36.8027" r="2.5" fill="#1DA3AB"/>
<circle cx="2.5" cy="53.9551" r="2.5" fill="#1DA3AB"/>
<circle cx="19.6514" cy="53.9551" r="2.5" fill="#1DA3AB"/>
<circle cx="36.8037" cy="53.9551" r="2.5" fill="#1DA3AB"/>
<circle cx="53.9551" cy="53.9551" r="2.5" fill="#1DA3AB"/>
<circle cx="71.5" cy="53.5" r="2.5" fill="#1DA3AB"/>
<circle cx="88.2588" cy="53.9551" r="2.5" fill="#1DA3AB"/>
<circle cx="105.41" cy="53.9551" r="2.5" fill="#1DA3AB"/>
<circle cx="122.562" cy="53.9551" r="2.5" fill="#1DA3AB"/>
<circle cx="139.714" cy="53.9551" r="2.5" fill="#1DA3AB"/>
<circle cx="2.5" cy="71.1074" r="2.5" fill="#1DA3AB"/>
<circle cx="19.6514" cy="71.1074" r="2.5" fill="#1DA3AB"/>
<circle cx="36.8037" cy="71.1074" r="2.5" fill="#1DA3AB"/>
<circle cx="53.9551" cy="71.1074" r="2.5" fill="#1DA3AB"/>
<circle cx="71.1074" cy="71.1074" r="2.5" fill="#1DA3AB"/>
<circle cx="88.2588" cy="71.1074" r="2.5" fill="#1DA3AB"/>
<circle cx="105.41" cy="71.1074" r="2.5" fill="#1DA3AB"/>
<circle cx="122.562" cy="71.1074" r="2.5" fill="#1DA3AB"/>
<circle cx="139.714" cy="71.1074" r="2.5" fill="#1DA3AB"/>
</svg>
