<svg width="85" height="321" viewBox="0 0 85 321" fill="none" xmlns="http://www.w3.org/2000/svg">
<g clip-path="url(#clip0_13_2586)">
<circle cx="5" cy="5" r="5" fill="#E9E9E9"/>
<circle cx="30" cy="5" r="5" fill="#E9E9E9"/>
<circle cx="55" cy="5" r="5" fill="#E9E9E9"/>
<circle cx="80" cy="5" r="5" fill="#E9E9E9"/>
<circle cx="5" cy="33" r="5" fill="#E9E9E9"/>
<circle cx="30" cy="33" r="5" fill="#E9E9E9"/>
<circle cx="55" cy="33" r="5" fill="#E9E9E9"/>
<circle cx="80" cy="33" r="5" fill="#E9E9E9"/>
<circle cx="5" cy="61" r="5" fill="#E9E9E9"/>
<circle cx="30" cy="61" r="5" fill="#E9E9E9"/>
<circle cx="55" cy="61" r="5" fill="#E9E9E9"/>
<circle cx="80" cy="61" r="5" fill="#E9E9E9"/>
<circle cx="5" cy="89" r="5" fill="#E9E9E9"/>
<circle cx="30" cy="89" r="5" fill="#E9E9E9"/>
<circle cx="55" cy="89" r="5" fill="#E9E9E9"/>
<circle cx="80" cy="89" r="5" fill="#E9E9E9"/>
<circle cx="5" cy="117" r="5" fill="#E9E9E9"/>
<circle cx="30" cy="117" r="5" fill="#E9E9E9"/>
<circle cx="55" cy="117" r="5" fill="#E9E9E9"/>
<circle cx="80" cy="117" r="5" fill="#E9E9E9"/>
<circle cx="5" cy="145" r="5" fill="#E9E9E9"/>
<circle cx="30" cy="145" r="5" fill="#E9E9E9"/>
<circle cx="55" cy="145" r="5" fill="#E9E9E9"/>
<circle cx="80" cy="145" r="5" fill="#E9E9E9"/>
<circle cx="5" cy="173" r="5" fill="#E9E9E9"/>
<circle cx="30" cy="173" r="5" fill="#E9E9E9"/>
<circle cx="55" cy="173" r="5" fill="#E9E9E9"/>
<circle cx="80" cy="173" r="5" fill="#E9E9E9"/>
<circle cx="5" cy="201" r="5" fill="#E9E9E9"/>
<circle cx="30" cy="201" r="5" fill="#E9E9E9"/>
<circle cx="55" cy="201" r="5" fill="#E9E9E9"/>
<circle cx="80" cy="201" r="5" fill="#E9E9E9"/>
<circle cx="5" cy="229" r="5" fill="#E9E9E9"/>
<circle cx="30" cy="229" r="5" fill="#E9E9E9"/>
<circle cx="55" cy="229" r="5" fill="#E9E9E9"/>
<circle cx="80" cy="229" r="5" fill="#E9E9E9"/>
<circle cx="5" cy="257" r="5" fill="#E9E9E9"/>
<circle cx="30" cy="257" r="5" fill="#E9E9E9"/>
<circle cx="55" cy="257" r="5" fill="#E9E9E9"/>
<circle cx="80" cy="257" r="5" fill="#E9E9E9"/>
<circle cx="5" cy="285" r="5" fill="#E9E9E9"/>
<circle cx="30" cy="285" r="5" fill="#E9E9E9"/>
<circle cx="55" cy="285" r="5" fill="#E9E9E9"/>
<circle cx="80" cy="285" r="5" fill="#E9E9E9"/>
<circle cx="5" cy="313" r="5" fill="#E9E9E9"/>
<circle cx="30" cy="313" r="5" fill="#E9E9E9"/>
<circle cx="55" cy="313" r="5" fill="#E9E9E9"/>
<circle cx="80" cy="313" r="5" fill="#E9E9E9"/>
</g>
<defs>
<clipPath id="clip0_13_2586">
<rect width="85" height="321" rx="10" fill="white"/>
</clipPath>
</defs>
</svg>
